<svg xmlns="http://www.w3.org/2000/svg" width="170" height="54" viewBox="-1 -1 170 54" id="btn-appstore" y="54"><title>btn-appstore</title><g fill="none" fill-rule="evenodd"><rect fill="#282C33" width="168" height="52" rx="5"/><path d="M39.356 29.251c-1.338-.506-2.233-1.721-2.334-3.17-.099-1.412.593-2.666 1.851-3.355l1.046-.573-.747-.93c-1.255-1.563-3.05-2.497-4.804-2.497-1.215 0-2.058.318-2.735.574-.478.181-.855.323-1.269.323-.472 0-.938-.166-1.478-.358-.708-.252-1.51-.538-2.54-.538-1.99 0-3.997 1.188-5.237 3.098-1.85 2.849-1.343 7.734 1.208 11.616 1.011 1.538 2.428 3.305 4.435 3.323h.04c1.642 0 2.002-.876 3.597-.886 1.742.082 1.962.893 3.59.882 1.96-.018 3.374-1.771 4.498-3.484.664-1.007.921-1.534 1.438-2.678l.438-.97-.997-.377zm-6.254-13.037c.65-.834 1.143-2.011.964-3.214-1.062.073-2.302.748-3.027 1.628-.658.799-1.2 1.983-.99 3.135 1.158.036 2.357-.656 3.053-1.549zM55.99 20h2.43c2.2 0 3.72-1.53 3.72-3.5v-.02c0-1.97-1.52-3.48-3.72-3.48h-2.43v7zm.79-.73v-5.54h1.64c1.77 0 2.9 1.22 2.9 2.77v.02c0 1.55-1.13 2.75-2.9 2.75h-1.64zm9.26.85c1.56 0 2.71-1.24 2.71-2.7v-.02c0-1.46-1.14-2.68-2.69-2.68-1.56 0-2.7 1.24-2.7 2.7v.02c0 1.46 1.13 2.68 2.68 2.68zm.02-.69c-1.09 0-1.91-.9-1.91-2.01v-.02c0-1.09.77-2 1.89-2 1.09 0 1.92.91 1.92 2.02v.02c0 1.09-.78 1.99-1.9 1.99zm5.2.61h.68l1.4-4.08 1.39 4.08h.67l1.82-5.21h-.8l-1.36 4.15-1.4-4.17h-.64l-1.39 4.17-1.36-4.15h-.82l1.81 5.21zM78.5 20h.77v-2.96c0-.97.66-1.62 1.55-1.62.91 0 1.43.6 1.43 1.56V20h.77v-3.21c0-1.23-.73-2.07-1.98-2.07-.89 0-1.43.45-1.77 1.01v-.9h-.77V20zm6.23 0h.77v-7.3h-.77V20zm4.92.12c1.56 0 2.71-1.24 2.71-2.7v-.02c0-1.46-1.14-2.68-2.69-2.68-1.56 0-2.7 1.24-2.7 2.7v.02c0 1.46 1.13 2.68 2.68 2.68zm.02-.69c-1.09 0-1.91-.9-1.91-2.01v-.02c0-1.09.77-2 1.89-2 1.09 0 1.92.91 1.92 2.02v.02c0 1.09-.78 1.99-1.9 1.99zm5.62.68c.91 0 1.5-.42 1.86-.88V20h.76v-3.16c0-.66-.18-1.16-.54-1.52-.37-.37-.94-.57-1.67-.57-.76 0-1.31.18-1.88.44l.23.63c.48-.22.96-.37 1.57-.37.97 0 1.53.48 1.53 1.4v.16c-.46-.13-.92-.22-1.58-.22-1.31 0-2.21.58-2.21 1.69v.02c0 1.06.96 1.61 1.93 1.61zm.15-.62c-.7 0-1.3-.38-1.3-1.03v-.02c0-.62.55-1.04 1.51-1.04.63 0 1.13.11 1.51.22v.48c0 .82-.77 1.39-1.72 1.39zm6.27.62c.95 0 1.56-.53 1.98-1.15V20h.77v-7.3h-.77v3.12c-.4-.58-1.02-1.1-1.98-1.1-1.24 0-2.47 1-2.47 2.69v.02c0 1.7 1.23 2.68 2.47 2.68zm.14-.69c-.98 0-1.82-.78-1.82-2v-.02c0-1.25.82-1.99 1.82-1.99.96 0 1.87.8 1.87 1.99v.02c0 1.19-.91 2-1.87 2zm10.71.7c2.13 0 3.58-1.69 3.58-3.62v-.02c0-1.93-1.43-3.6-3.56-3.6S109 14.57 109 16.5v.02c0 1.93 1.43 3.6 3.56 3.6zm.02-.73c-1.6 0-2.76-1.3-2.76-2.89v-.02c0-1.59 1.14-2.87 2.74-2.87 1.6 0 2.76 1.3 2.76 2.89v.02c0 1.59-1.14 2.87-2.74 2.87zm5.1.61h.77v-2.96c0-.97.66-1.62 1.55-1.62.91 0 1.43.6 1.43 1.56V20h.77v-3.21c0-1.23-.73-2.07-1.98-2.07-.89 0-1.43.45-1.77 1.01v-.9h-.77V20zm11.14 0h.8v-6.27h2.35V13h-5.5v.73h2.35V20zm4.34 0h.77v-2.96c0-.97.66-1.62 1.55-1.62.91 0 1.43.6 1.43 1.56V20h.77v-3.21c0-1.23-.73-2.07-1.98-2.07-.89 0-1.43.45-1.77 1.01V12.7h-.77V20zm6.62-2.27h4.1c.01-.12.01-.2.01-.27 0-1.52-.88-2.74-2.41-2.74-1.43 0-2.48 1.2-2.48 2.7 0 1.61 1.16 2.7 2.58 2.7.98 0 1.61-.39 2.13-.97l-.48-.43c-.42.44-.92.73-1.63.73-.91 0-1.71-.63-1.82-1.72zm0-.62c.11-1 .79-1.74 1.68-1.74 1.02 0 1.56.8 1.65 1.74h-3.33zM55.384 38h2.512l1.024-2.512h4.736L64.68 38h2.576l-4.8-11.28h-2.272L55.384 38zm4.416-4.688l1.488-3.632 1.488 3.632H59.8zm8.928 7.248h2.432v-3.68c.576.688 1.376 1.28 2.672 1.28 2.032 0 3.904-1.568 3.904-4.432v-.032c0-2.864-1.904-4.432-3.904-4.432-1.264 0-2.08.592-2.672 1.392v-1.232h-2.432V40.56zm4.48-4.464c-1.136 0-2.08-.944-2.08-2.368v-.032c0-1.424.944-2.368 2.08-2.368 1.136 0 2.096.944 2.096 2.368v.032c0 1.44-.96 2.368-2.096 2.368zm6.32 4.464h2.432v-3.68c.576.688 1.376 1.28 2.672 1.28 2.032 0 3.904-1.568 3.904-4.432v-.032c0-2.864-1.904-4.432-3.904-4.432-1.264 0-2.08.592-2.672 1.392v-1.232h-2.432V40.56zm4.48-4.464c-1.136 0-2.08-.944-2.08-2.368v-.032c0-1.424.944-2.368 2.08-2.368 1.136 0 2.096.944 2.096 2.368v.032c0 1.44-.96 2.368-2.096 2.368zm15.36 2.064c2.416 0 4.112-1.248 4.112-3.472v-.032c0-1.952-1.28-2.768-3.552-3.36-1.936-.496-2.416-.736-2.416-1.472v-.032c0-.544.496-.976 1.44-.976s1.92.416 2.912 1.104l1.28-1.856c-1.136-.912-2.528-1.424-4.16-1.424-2.288 0-3.92 1.344-3.92 3.376v.032c0 2.224 1.456 2.848 3.712 3.424 1.872.48 2.256.8 2.256 1.424v.032c0 .656-.608 1.056-1.616 1.056-1.28 0-2.336-.528-3.344-1.36l-1.456 1.744a7.127 7.127 0 0 0 4.752 1.792zm8.816-.016c.816 0 1.408-.192 1.92-.496v-1.952a2.473 2.473 0 0 1-1.2.304c-.544 0-.784-.272-.784-.832v-3.664h2.016v-2.08h-2.016v-2.192h-2.432v2.192h-1.024v2.08h1.024v4.064c0 1.984 1.008 2.576 2.496 2.576zm7.712.048c2.672 0 4.656-2 4.656-4.464v-.032c0-2.464-1.968-4.432-4.624-4.432-2.672 0-4.656 2-4.656 4.464v.032c0 2.464 1.968 4.432 4.624 4.432zm.032-2.096c-1.344 0-2.256-1.104-2.256-2.368v-.032c0-1.264.832-2.336 2.224-2.336 1.344 0 2.256 1.104 2.256 2.368v.032c0 1.264-.832 2.336-2.224 2.336zM122.312 38h2.432v-3.168c0-2.048.992-3.024 2.608-3.024h.128v-2.544c-1.44-.064-2.24.704-2.736 1.888v-1.728h-2.432V38zm10.512.192c1.552 0 2.704-.608 3.504-1.6l-1.392-1.232c-.672.624-1.264.88-2.08.88-1.088 0-1.856-.576-2.096-1.68h5.968c.016-.224.032-.448.032-.64 0-2.432-1.312-4.656-4.176-4.656-2.496 0-4.24 2.016-4.24 4.464v.032c0 2.624 1.904 4.432 4.48 4.432zm-2.096-5.152c.192-1.104.848-1.824 1.856-1.824 1.024 0 1.664.736 1.808 1.824h-3.664z" fill="#FFF"/></g></svg>
