<svg xmlns="http://www.w3.org/2000/svg" width="170" height="54" viewBox="-1 -1 170 54" id="btn-google-play"><title>btn-google-play</title><defs><path id="ca" d="M0 0v26.649h14.756V0H0z"/></defs><g fill="none" fill-rule="evenodd"><rect fill="#282C33" width="168" height="52" rx="5"/><path d="M59.24 21.12c1.18 0 2.16-.49 2.81-1.07v-2.79h-2.89v.71h2.13v1.74c-.48.39-1.22.7-2.02.7-1.7 0-2.77-1.24-2.77-2.91v-.02c0-1.56 1.11-2.87 2.66-2.87.99 0 1.59.33 2.13.8l.51-.6c-.7-.59-1.43-.93-2.61-.93-2.1 0-3.51 1.7-3.51 3.62v.02c0 2 1.36 3.6 3.56 3.6zm4.59-.12h5.11v-.72h-4.32v-2.45h3.82v-.72h-3.82v-2.39h4.27V14h-5.06v7zm8.55 0h.8v-6.27h2.35V14h-5.5v.73h2.35V21zm7.7 0h.79v-7h-.79v7zm4.69 0h.8v-6.27h2.35V14h-5.5v.73h2.35V21zm10.88.12c2.13 0 3.58-1.69 3.58-3.62v-.02c0-1.93-1.43-3.6-3.56-3.6s-3.58 1.69-3.58 3.62v.02c0 1.93 1.43 3.6 3.56 3.6zm.02-.73c-1.6 0-2.76-1.3-2.76-2.89v-.02c0-1.59 1.14-2.87 2.74-2.87 1.6 0 2.76 1.3 2.76 2.89v.02c0 1.59-1.14 2.87-2.74 2.87zm5.23.61h.77v-5.74l4.52 5.74h.63v-7h-.77v5.61L101.64 14h-.74v7zM61.736 38.192c2.048 0 3.632-.8 4.784-1.776v-4.864h-4.864v2.128h2.48v1.6c-.624.448-1.424.672-2.32.672-1.984 0-3.392-1.504-3.392-3.552v-.032c0-1.904 1.424-3.488 3.216-3.488 1.296 0 2.064.416 2.928 1.136l1.552-1.872c-1.168-.992-2.384-1.536-4.4-1.536-3.392 0-5.872 2.608-5.872 5.792v.032c0 3.312 2.4 5.76 5.888 5.76zm11.104 0c2.672 0 4.656-2 4.656-4.464v-.032c0-2.464-1.968-4.432-4.624-4.432-2.672 0-4.656 2-4.656 4.464v.032c0 2.464 1.968 4.432 4.624 4.432zm.032-2.096c-1.344 0-2.256-1.104-2.256-2.368v-.032c0-1.264.832-2.336 2.224-2.336 1.344 0 2.256 1.104 2.256 2.368v.032c0 1.264-.832 2.336-2.224 2.336zm10.592 2.096c2.672 0 4.656-2 4.656-4.464v-.032c0-2.464-1.968-4.432-4.624-4.432-2.672 0-4.656 2-4.656 4.464v.032c0 2.464 1.968 4.432 4.624 4.432zm.032-2.096c-1.344 0-2.256-1.104-2.256-2.368v-.032c0-1.264.832-2.336 2.224-2.336 1.344 0 2.256 1.104 2.256 2.368v.032c0 1.264-.832 2.336-2.224 2.336zm10.224 4.496c1.664 0 2.896-.352 3.696-1.152.72-.72 1.088-1.84 1.088-3.376v-6.64h-2.432v1.12c-.656-.72-1.44-1.28-2.768-1.28-1.968 0-3.808 1.44-3.808 4v.032c0 2.544 1.808 4 3.808 4 1.296 0 2.08-.528 2.8-1.392v.416c0 1.536-.784 2.336-2.448 2.336-1.136 0-2.016-.288-2.896-.784l-.832 1.824c1.088.576 2.4.896 3.792.896zm.288-5.312c-1.184 0-2.08-.8-2.08-1.984v-.032c0-1.168.896-1.984 2.08-1.984 1.184 0 2.096.816 2.096 1.984v.032c0 1.168-.912 1.984-2.096 1.984zm6.784 2.72h2.432V26.32h-2.432V38zm8.784.192c1.552 0 2.704-.608 3.504-1.6l-1.392-1.232c-.672.624-1.264.88-2.08.88-1.088 0-1.856-.576-2.096-1.68h5.968c.016-.224.032-.448.032-.64 0-2.432-1.312-4.656-4.176-4.656-2.496 0-4.24 2.016-4.24 4.464v.032c0 2.624 1.904 4.432 4.48 4.432zm-2.096-5.152c.192-1.104.848-1.824 1.856-1.824 1.024 0 1.664.736 1.808 1.824h-3.664zM120.376 38h2.464v-3.36h1.872c2.512 0 4.528-1.344 4.528-3.936v-.032c0-2.288-1.616-3.872-4.288-3.872h-4.576V38zm2.464-5.552v-3.424h1.904c1.232 0 2 .592 2 1.696v.032c0 .96-.72 1.696-1.952 1.696h-1.952zM130.92 38h2.432V26.32h-2.432V38zm7.152.16c1.184 0 2-.432 2.592-1.088V38h2.352v-4.976c0-1.152-.288-2.096-.928-2.736-.608-.608-1.568-.96-2.896-.96-1.456 0-2.384.272-3.328.688l.608 1.856c.784-.288 1.44-.464 2.368-.464 1.216 0 1.84.56 1.84 1.568v.144a6.094 6.094 0 0 0-2.096-.352c-2.032 0-3.456.864-3.456 2.736v.032c0 1.696 1.328 2.624 2.944 2.624zm.736-1.68c-.784 0-1.328-.384-1.328-1.04v-.032c0-.768.64-1.184 1.68-1.184.592 0 1.136.128 1.552.32v.432c0 .88-.768 1.504-1.904 1.504zm8.032 4.128c1.456 0 2.16-.656 2.816-2.4l3.296-8.784h-2.528l-1.872 5.84-1.952-5.84h-2.576l3.36 8.608c-.208.432-.432.56-.848.56-.32 0-.72-.144-1.04-.336l-.816 1.76c.624.368 1.28.592 2.16.592z" fill="#FFF"/><g transform="translate(20 12)"><g transform="translate(0 .549)"><mask id="cb" fill="#fff"><use xmlns:xlink="http://www.w3.org/1999/xlink" xlink:href="#ca"/></mask><path d="M1.372 0C.624.15 0 .789 0 1.655V25.01c0 .824.564 1.45 1.263 1.639L14.756 13.27 1.372 0z" fill="#27B9C2" mask="url(#cb)"/></g><path d="M1 1.035l13.384 13.27 3.846-3.814-16.058-9.27A1.659 1.659 0 0 0 1 1.035" fill="#ADD7A1"/><path d="M1 27.378c.41.11.864.071 1.282-.17l16.136-9.316L14.493 14 1 27.378z" fill="#D6476C"/><path d="M17.925 17.706l4.09-2.362c1.131-.653 1.131-2.285 0-2.937L17.845 10 14 13.813l3.925 3.893z" fill="#F79F73"/></g></g></svg>
