<?xml version="1.0" encoding="utf-8"?>
<!-- Generator: Adobe Illustrator 21.0.2, SVG Export Plug-In . SVG Version: 6.00 Build 0)  -->
<svg version="1.1" id="Layer_1" xmlns="http://www.w3.org/2000/svg" xmlns:xlink="http://www.w3.org/1999/xlink" x="0px" y="0px"
	 viewBox="0 0 201.7 114" style="enable-background:new 0 0 201.7 114;" xml:space="preserve">
<style type="text/css">
	.st0{fill:#FFFFFF;}
	.st1{fill:#58585A;}
	.st2{fill:#FFF200;}
	.st3{font-family:'Silom';}
	.st4{font-size:20.0998px;}
</style>
<g>
	<g>
		<rect x="29.4" y="4.5" class="st0" width="142.9" height="93.1"/>
		<path class="st1" d="M167.8,9v84.1H33.9V9H167.8 M172.8,0H28.9c-2.2,0-4,1.8-4,4v94.1c0,2.2,1.8,4,4,4h143.9c2.2,0,4-1.8,4-4V4
			C176.8,1.8,175,0,172.8,0L172.8,0z"/>
	</g>
	<path class="st1" d="M115,104.1v4.1H86.7v-4.1H0v4.5c0,3,3.1,5.4,6.9,5.4h188c3.8,0,6.9-2.4,6.9-5.4v-4.5H115z"/>
</g>
<text transform="matrix(1 0 0 1 78.4467 61.1379)" class="st2 st3 st4">WEB</text>
</svg>
