<?xml version="1.0" encoding="utf-8"?>
<!-- Generator: Adobe Illustrator 21.0.2, SVG Export Plug-In . SVG Version: 6.00 Build 0)  -->
<svg version="1.1" id="Layer_1" xmlns="http://www.w3.org/2000/svg" xmlns:xlink="http://www.w3.org/1999/xlink" x="0px" y="0px"
	 viewBox="0 0 61 114" style="enable-background:new 0 0 61 114;" xml:space="preserve">
<style type="text/css">
	.st0{fill:#58585A;}
	.st1{fill:#FFFFFF;}
	.st2{fill:none;stroke:#FFFFFF;stroke-width:3;stroke-linecap:round;stroke-miterlimit:10;}
	.st3{fill:#EC008C;}
</style>
<g>
	<path class="st0" d="M56,114H5c-2.8,0-5-2.2-5-5V5c0-2.8,2.2-5,5-5h51c2.8,0,5,2.2,5,5v104C61,111.8,58.8,114,56,114z"/>
	<circle class="st1" cx="30.5" cy="104.5" r="6.1"/>
	<rect x="5.2" y="18.4" class="st1" width="50.6" height="75.7"/>
	<line class="st2" x1="25.5" y1="10.5" x2="35.5" y2="10.5"/>
</g>
<path id="icon" class="st3" d="M37.5,49.4l2.6-2.6c0.4-0.4,0.4-1,0-1.4c-0.4-0.4-1-0.4-1.4,0l-3,3c-1.4-1-3.4-1.3-5.2-1.3
	c-2,0-3.8,0.4-5.4,1.2l-3-2.8c-0.4-0.4-1-0.4-1.4-0.1s-0.4,1,0,1.4l2.6,2.6c-2.8,2.3-4.8,5.6-4.8,9.6h24
	C42.5,55,40.5,51.4,37.5,49.4L37.5,49.4z M26.5,55h-2v-2h2V55L26.5,55z M36.5,55h-2v-2h2V55z M18.5,61h24v6c0,1.2-1,2-2,2h-20
	c-1.2,0-2-0.8-2-2V61z"/>
</svg>
