<svg id="Layer_1" data-name="Layer 1" xmlns="http://www.w3.org/2000/svg" viewBox="0 0 394.36 394.37"><defs><style>.cls-1,.cls-3{fill:#006837;}.cls-2,.cls-5{fill:#fff;}.cls-3,.cls-5{isolation:isolate;font-family:HelveticaNeue-CondensedBlack, Helvetica Neue;}.cls-3{font-size:172px;}.cls-4{fill:none;stroke:#006837;stroke-miterlimit:10;stroke-width:20px;}.cls-5{font-size:172.13px;}</style></defs><title>logo-retouched</title><path class="cls-1" d="M197.18,9.35v375c-102.68,0-186-82.68-187.16-185.09,0-.7,0-1.39,0-2.09v-.33c0-.81,0-1.61,0-2.42C11.13,92,94.5,9.35,197.18,9.35Z"/><path class="cls-2" d="M197.18,9.68v375c102.68,0,186-82.68,187.16-185.09,0-.7,0-1.39,0-2.09v-.33c0-.81,0-1.61,0-2.42C383.23,92.35,299.86,9.68,197.18,9.68Z"/><text class="cls-3" transform="translate(216.12 257.47)">M</text><path class="cls-4" d="M384.36,196.86v.33c0,.7,0,1.39,0,2.09-1.11,102.41-84.48,185.09-187.16,185.09S11.13,301.69,10,199.28c0-.7,0-1.39,0-2.09v-.33c0-.81,0-1.61,0-2.42C11.49,92.33,94.72,10,197.18,10S382.87,92.33,384.34,194.44C384.35,195.25,384.36,196.05,384.36,196.86Z"/><text class="cls-5" transform="translate(69.64 258.22)">T</text></svg>